<?xml version="1.0" encoding="utf-8" standalone="no"?>
<!DOCTYPE svg PUBLIC "-//W3C//DTD SVG 1.1//EN"
  "http://www.w3.org/Graphics/SVG/1.1/DTD/svg11.dtd">
<svg xmlns:xlink="http://www.w3.org/1999/xlink" width="936.013008pt" height="532.569338pt" viewBox="0 0 936.013008 532.569338" xmlns="http://www.w3.org/2000/svg" version="1.1">
 <metadata>
  <rdf:RDF xmlns:dc="http://purl.org/dc/elements/1.1/" xmlns:cc="http://creativecommons.org/ns#" xmlns:rdf="http://www.w3.org/1999/02/22-rdf-syntax-ns#">
   <cc:Work>
    <dc:type rdf:resource="http://purl.org/dc/dcmitype/StillImage"/>
    <dc:date>2025-03-20T19:46:10.708878</dc:date>
    <dc:format>image/svg+xml</dc:format>
    <dc:creator>
     <cc:Agent>
      <dc:title>Matplotlib v3.10.1, https://matplotlib.org/</dc:title>
     </cc:Agent>
    </dc:creator>
   </cc:Work>
  </rdf:RDF>
 </metadata>
 <defs>
  <style type="text/css">*{stroke-linejoin: round; stroke-linecap: butt}</style>
 </defs>
 <g id="figure_1">
  <g id="patch_1">
   <path d="M 0 532.569338 
L 936.013008 532.569338 
L 936.013008 0 
L 0 0 
z
" style="fill: #ffffff"/>
  </g>
  <g id="axes_1">
   <g id="patch_2">
    <path d="M 46.41 495.3814 
L 892.32 495.3814 
L 892.32 46.8074 
L 46.41 46.8074 
z
" style="fill: #ffffff"/>
   </g>
   <g id="matplotlib.axis_1">
    <g id="xtick_1">
     <g id="text_1">
      <!-- PD-16K -->
      <g style="fill: #262626" transform="translate(132.007578 510.739681) scale(0.11 -0.11)">
       <defs>
        <path id="DejaVuSans-50" d="M 1259 4147 
L 1259 2394 
L 2053 2394 
Q 2494 2394 2734 2622 
Q 2975 2850 2975 3272 
Q 2975 3691 2734 3919 
Q 2494 4147 2053 4147 
L 1259 4147 
z
M 628 4666 
L 2053 4666 
Q 2838 4666 3239 4311 
Q 3641 3956 3641 3272 
Q 3641 2581 3239 2228 
Q 2838 1875 2053 1875 
L 1259 1875 
L 1259 0 
L 628 0 
L 628 4666 
z
" transform="scale(0.015625)"/>
        <path id="DejaVuSans-44" d="M 1259 4147 
L 1259 519 
L 2022 519 
Q 2988 519 3436 956 
Q 3884 1394 3884 2338 
Q 3884 3275 3436 3711 
Q 2988 4147 2022 4147 
L 1259 4147 
z
M 628 4666 
L 1925 4666 
Q 3281 4666 3915 4102 
Q 4550 3538 4550 2338 
Q 4550 1131 3912 565 
Q 3275 0 1925 0 
L 628 0 
L 628 4666 
z
" transform="scale(0.015625)"/>
        <path id="DejaVuSans-2d" d="M 313 2009 
L 1997 2009 
L 1997 1497 
L 313 1497 
L 313 2009 
z
" transform="scale(0.015625)"/>
        <path id="DejaVuSans-31" d="M 794 531 
L 1825 531 
L 1825 4091 
L 703 3866 
L 703 4441 
L 1819 4666 
L 2450 4666 
L 2450 531 
L 3481 531 
L 3481 0 
L 794 0 
L 794 531 
z
" transform="scale(0.015625)"/>
        <path id="DejaVuSans-36" d="M 2113 2584 
Q 1688 2584 1439 2293 
Q 1191 2003 1191 1497 
Q 1191 994 1439 701 
Q 1688 409 2113 409 
Q 2538 409 2786 701 
Q 3034 994 3034 1497 
Q 3034 2003 2786 2293 
Q 2538 2584 2113 2584 
z
M 3366 4563 
L 3366 3988 
Q 3128 4100 2886 4159 
Q 2644 4219 2406 4219 
Q 1781 4219 1451 3797 
Q 1122 3375 1075 2522 
Q 1259 2794 1537 2939 
Q 1816 3084 2150 3084 
Q 2853 3084 3261 2657 
Q 3669 2231 3669 1497 
Q 3669 778 3244 343 
Q 2819 -91 2113 -91 
Q 1303 -91 875 529 
Q 447 1150 447 2328 
Q 447 3434 972 4092 
Q 1497 4750 2381 4750 
Q 2619 4750 2861 4703 
Q 3103 4656 3366 4563 
z
" transform="scale(0.015625)"/>
        <path id="DejaVuSans-4b" d="M 628 4666 
L 1259 4666 
L 1259 2694 
L 3353 4666 
L 4166 4666 
L 1850 2491 
L 4331 0 
L 3500 0 
L 1259 2247 
L 1259 0 
L 628 0 
L 628 4666 
z
" transform="scale(0.015625)"/>
       </defs>
       <use xlink:href="#DejaVuSans-50"/>
       <use xlink:href="#DejaVuSans-44" transform="translate(60.302734 0)"/>
       <use xlink:href="#DejaVuSans-2d" transform="translate(137.304688 0)"/>
       <use xlink:href="#DejaVuSans-31" transform="translate(173.388672 0)"/>
       <use xlink:href="#DejaVuSans-36" transform="translate(237.011719 0)"/>
       <use xlink:href="#DejaVuSans-4b" transform="translate(300.634766 0)"/>
      </g>
      <!-- $\it{inproject}$ -->
      <g style="fill: #262626" transform="translate(127.89375 523.059338) scale(0.11 -0.11)">
       <defs>
        <path id="DejaVuSans-Oblique-69" d="M 1172 4863 
L 1747 4863 
L 1606 4134 
L 1031 4134 
L 1172 4863 
z
M 909 3500 
L 1484 3500 
L 800 0 
L 225 0 
L 909 3500 
z
" transform="scale(0.015625)"/>
        <path id="DejaVuSans-Oblique-6e" d="M 3566 2113 
L 3156 0 
L 2578 0 
L 2988 2091 
Q 3016 2238 3031 2350 
Q 3047 2463 3047 2528 
Q 3047 2791 2881 2937 
Q 2716 3084 2419 3084 
Q 1956 3084 1622 2776 
Q 1288 2469 1184 1941 
L 800 0 
L 225 0 
L 903 3500 
L 1478 3500 
L 1363 2950 
Q 1603 3253 1940 3418 
Q 2278 3584 2650 3584 
Q 3113 3584 3367 3334 
Q 3622 3084 3622 2631 
Q 3622 2519 3608 2391 
Q 3594 2263 3566 2113 
z
" transform="scale(0.015625)"/>
        <path id="DejaVuSans-Oblique-70" d="M 3175 2156 
Q 3175 2616 2975 2859 
Q 2775 3103 2400 3103 
Q 2144 3103 1911 2972 
Q 1678 2841 1497 2591 
Q 1319 2344 1212 1994 
Q 1106 1644 1106 1300 
Q 1106 863 1306 627 
Q 1506 391 1875 391 
Q 2147 391 2380 519 
Q 2613 647 2778 891 
Q 2956 1147 3065 1494 
Q 3175 1841 3175 2156 
z
M 1394 2969 
Q 1625 3272 1939 3428 
Q 2253 3584 2638 3584 
Q 3175 3584 3472 3232 
Q 3769 2881 3769 2247 
Q 3769 1728 3584 1258 
Q 3400 788 3053 416 
Q 2822 169 2531 39 
Q 2241 -91 1919 -91 
Q 1547 -91 1294 64 
Q 1041 219 916 525 
L 556 -1331 
L -19 -1331 
L 922 3500 
L 1497 3500 
L 1394 2969 
z
" transform="scale(0.015625)"/>
        <path id="DejaVuSans-Oblique-72" d="M 2853 2969 
Q 2766 3016 2653 3041 
Q 2541 3066 2413 3066 
Q 1953 3066 1609 2717 
Q 1266 2369 1153 1784 
L 800 0 
L 225 0 
L 909 3500 
L 1484 3500 
L 1375 2956 
Q 1603 3259 1920 3421 
Q 2238 3584 2597 3584 
Q 2691 3584 2781 3573 
Q 2872 3563 2963 3538 
L 2853 2969 
z
" transform="scale(0.015625)"/>
        <path id="DejaVuSans-Oblique-6f" d="M 1625 -91 
Q 1009 -91 651 289 
Q 294 669 294 1325 
Q 294 1706 417 2101 
Q 541 2497 738 2766 
Q 1047 3184 1428 3384 
Q 1809 3584 2291 3584 
Q 2888 3584 3255 3212 
Q 3622 2841 3622 2241 
Q 3622 1825 3500 1412 
Q 3378 1000 3181 728 
Q 2875 309 2494 109 
Q 2113 -91 1625 -91 
z
M 891 1344 
Q 891 869 1089 633 
Q 1288 397 1691 397 
Q 2269 397 2648 901 
Q 3028 1406 3028 2181 
Q 3028 2634 2825 2865 
Q 2622 3097 2228 3097 
Q 1903 3097 1650 2945 
Q 1397 2794 1197 2484 
Q 1050 2253 970 1956 
Q 891 1659 891 1344 
z
" transform="scale(0.015625)"/>
        <path id="DejaVuSans-Oblique-6a" d="M 928 3500 
L 1503 3500 
L 813 -63 
L 809 -78 
Q 694 -675 544 -897 
Q 403 -1106 132 -1218 
Q -138 -1331 -506 -1331 
L -722 -1331 
L -628 -844 
L -481 -844 
Q -144 -844 -1 -703 
Q 141 -563 238 -63 
L 928 3500 
z
M 1197 4863 
L 1772 4863 
L 1631 4134 
L 1056 4134 
L 1197 4863 
z
" transform="scale(0.015625)"/>
        <path id="DejaVuSans-Oblique-65" d="M 3078 2063 
Q 3088 2113 3092 2166 
Q 3097 2219 3097 2272 
Q 3097 2653 2873 2875 
Q 2650 3097 2266 3097 
Q 1838 3097 1509 2826 
Q 1181 2556 1013 2059 
L 3078 2063 
z
M 3578 1613 
L 903 1613 
Q 884 1494 878 1425 
Q 872 1356 872 1306 
Q 872 872 1139 634 
Q 1406 397 1894 397 
Q 2269 397 2603 481 
Q 2938 566 3225 728 
L 3116 159 
Q 2806 34 2476 -28 
Q 2147 -91 1806 -91 
Q 1078 -91 686 257 
Q 294 606 294 1247 
Q 294 1794 489 2264 
Q 684 2734 1063 3103 
Q 1306 3334 1642 3459 
Q 1978 3584 2356 3584 
Q 2950 3584 3301 3228 
Q 3653 2872 3653 2272 
Q 3653 2128 3634 1964 
Q 3616 1800 3578 1613 
z
" transform="scale(0.015625)"/>
        <path id="DejaVuSans-Oblique-63" d="M 3431 3366 
L 3316 2797 
Q 3109 2947 2876 3022 
Q 2644 3097 2394 3097 
Q 2119 3097 1870 3000 
Q 1622 2903 1453 2725 
Q 1184 2453 1037 2087 
Q 891 1722 891 1331 
Q 891 859 1127 628 
Q 1363 397 1844 397 
Q 2081 397 2348 469 
Q 2616 541 2906 684 
L 2797 116 
Q 2547 13 2283 -39 
Q 2019 -91 1741 -91 
Q 1044 -91 669 257 
Q 294 606 294 1253 
Q 294 1797 489 2255 
Q 684 2713 1069 3078 
Q 1331 3328 1684 3456 
Q 2038 3584 2456 3584 
Q 2700 3584 2940 3529 
Q 3181 3475 3431 3366 
z
" transform="scale(0.015625)"/>
        <path id="DejaVuSans-Oblique-74" d="M 2706 3500 
L 2619 3053 
L 1472 3053 
L 1100 1153 
Q 1081 1047 1072 975 
Q 1063 903 1063 863 
Q 1063 663 1183 572 
Q 1303 481 1569 481 
L 2150 481 
L 2053 0 
L 1503 0 
Q 991 0 739 200 
Q 488 400 488 806 
Q 488 878 497 964 
Q 506 1050 525 1153 
L 897 3053 
L 409 3053 
L 500 3500 
L 978 3500 
L 1172 4494 
L 1747 4494 
L 1556 3500 
L 2706 3500 
z
" transform="scale(0.015625)"/>
       </defs>
       <use xlink:href="#DejaVuSans-Oblique-69" transform="translate(0 0.015625)"/>
       <use xlink:href="#DejaVuSans-Oblique-6e" transform="translate(27.783203 0.015625)"/>
       <use xlink:href="#DejaVuSans-Oblique-70" transform="translate(91.162109 0.015625)"/>
       <use xlink:href="#DejaVuSans-Oblique-72" transform="translate(154.638672 0.015625)"/>
       <use xlink:href="#DejaVuSans-Oblique-6f" transform="translate(195.751953 0.015625)"/>
       <use xlink:href="#DejaVuSans-Oblique-6a" transform="translate(256.933594 0.015625)"/>
       <use xlink:href="#DejaVuSans-Oblique-65" transform="translate(284.716797 0.015625)"/>
       <use xlink:href="#DejaVuSans-Oblique-63" transform="translate(346.240234 0.015625)"/>
       <use xlink:href="#DejaVuSans-Oblique-74" transform="translate(401.220703 0.015625)"/>
      </g>
     </g>
    </g>
    <g id="xtick_2">
     <g id="text_2">
      <!-- PD-16K -->
      <g style="fill: #262626" transform="translate(343.485078 510.739681) scale(0.11 -0.11)">
       <use xlink:href="#DejaVuSans-50"/>
       <use xlink:href="#DejaVuSans-44" transform="translate(60.302734 0)"/>
       <use xlink:href="#DejaVuSans-2d" transform="translate(137.304688 0)"/>
       <use xlink:href="#DejaVuSans-31" transform="translate(173.388672 0)"/>
       <use xlink:href="#DejaVuSans-36" transform="translate(237.011719 0)"/>
       <use xlink:href="#DejaVuSans-4b" transform="translate(300.634766 0)"/>
      </g>
      <!-- $\it{infile}$ -->
      <g style="fill: #262626" transform="translate(350.20625 523.057275) scale(0.11 -0.11)">
       <defs>
        <path id="DejaVuSans-Oblique-66" d="M 3059 4863 
L 2969 4384 
L 2419 4384 
Q 2106 4384 1964 4261 
Q 1822 4138 1753 3809 
L 1691 3500 
L 2638 3500 
L 2553 3053 
L 1606 3053 
L 1013 0 
L 434 0 
L 1031 3053 
L 481 3053 
L 563 3500 
L 1113 3500 
L 1159 3744 
Q 1278 4363 1576 4613 
Q 1875 4863 2516 4863 
L 3059 4863 
z
" transform="scale(0.015625)"/>
        <path id="DejaVuSans-Oblique-6c" d="M 1172 4863 
L 1747 4863 
L 800 0 
L 225 0 
L 1172 4863 
z
" transform="scale(0.015625)"/>
       </defs>
       <use xlink:href="#DejaVuSans-Oblique-69" transform="translate(0 0.015625)"/>
       <use xlink:href="#DejaVuSans-Oblique-6e" transform="translate(27.783203 0.015625)"/>
       <use xlink:href="#DejaVuSans-Oblique-66" transform="translate(91.162109 0.015625)"/>
       <use xlink:href="#DejaVuSans-Oblique-69" transform="translate(126.367188 0.015625)"/>
       <use xlink:href="#DejaVuSans-Oblique-6c" transform="translate(154.150391 0.015625)"/>
       <use xlink:href="#DejaVuSans-Oblique-65" transform="translate(181.933594 0.015625)"/>
      </g>
     </g>
    </g>
    <g id="xtick_3">
     <g id="text_3">
      <!-- FL-4K -->
      <g style="fill: #262626" transform="translate(559.881641 510.739681) scale(0.11 -0.11)">
       <defs>
        <path id="DejaVuSans-46" d="M 628 4666 
L 3309 4666 
L 3309 4134 
L 1259 4134 
L 1259 2759 
L 3109 2759 
L 3109 2228 
L 1259 2228 
L 1259 0 
L 628 0 
L 628 4666 
z
" transform="scale(0.015625)"/>
        <path id="DejaVuSans-4c" d="M 628 4666 
L 1259 4666 
L 1259 531 
L 3531 531 
L 3531 0 
L 628 0 
L 628 4666 
z
" transform="scale(0.015625)"/>
        <path id="DejaVuSans-34" d="M 2419 4116 
L 825 1625 
L 2419 1625 
L 2419 4116 
z
M 2253 4666 
L 3047 4666 
L 3047 1625 
L 3713 1625 
L 3713 1100 
L 3047 1100 
L 3047 0 
L 2419 0 
L 2419 1100 
L 313 1100 
L 313 1709 
L 2253 4666 
z
" transform="scale(0.015625)"/>
       </defs>
       <use xlink:href="#DejaVuSans-46"/>
       <use xlink:href="#DejaVuSans-4c" transform="translate(57.519531 0)"/>
       <use xlink:href="#DejaVuSans-2d" transform="translate(111.482422 0)"/>
       <use xlink:href="#DejaVuSans-34" transform="translate(147.566406 0)"/>
       <use xlink:href="#DejaVuSans-4b" transform="translate(211.189453 0)"/>
      </g>
      <!-- $\it{inproject}$ -->
      <g style="fill: #262626" transform="translate(550.84875 523.059338) scale(0.11 -0.11)">
       <use xlink:href="#DejaVuSans-Oblique-69" transform="translate(0 0.015625)"/>
       <use xlink:href="#DejaVuSans-Oblique-6e" transform="translate(27.783203 0.015625)"/>
       <use xlink:href="#DejaVuSans-Oblique-70" transform="translate(91.162109 0.015625)"/>
       <use xlink:href="#DejaVuSans-Oblique-72" transform="translate(154.638672 0.015625)"/>
       <use xlink:href="#DejaVuSans-Oblique-6f" transform="translate(195.751953 0.015625)"/>
       <use xlink:href="#DejaVuSans-Oblique-6a" transform="translate(256.933594 0.015625)"/>
       <use xlink:href="#DejaVuSans-Oblique-65" transform="translate(284.716797 0.015625)"/>
       <use xlink:href="#DejaVuSans-Oblique-63" transform="translate(346.240234 0.015625)"/>
       <use xlink:href="#DejaVuSans-Oblique-74" transform="translate(401.220703 0.015625)"/>
      </g>
     </g>
    </g>
    <g id="xtick_4">
     <g id="text_4">
      <!-- FL-4K -->
      <g style="fill: #262626" transform="translate(771.359141 510.739681) scale(0.11 -0.11)">
       <use xlink:href="#DejaVuSans-46"/>
       <use xlink:href="#DejaVuSans-4c" transform="translate(57.519531 0)"/>
       <use xlink:href="#DejaVuSans-2d" transform="translate(111.482422 0)"/>
       <use xlink:href="#DejaVuSans-34" transform="translate(147.566406 0)"/>
       <use xlink:href="#DejaVuSans-4b" transform="translate(211.189453 0)"/>
      </g>
      <!-- $\it{infile}$ -->
      <g style="fill: #262626" transform="translate(773.16125 523.057275) scale(0.11 -0.11)">
       <use xlink:href="#DejaVuSans-Oblique-69" transform="translate(0 0.015625)"/>
       <use xlink:href="#DejaVuSans-Oblique-6e" transform="translate(27.783203 0.015625)"/>
       <use xlink:href="#DejaVuSans-Oblique-66" transform="translate(91.162109 0.015625)"/>
       <use xlink:href="#DejaVuSans-Oblique-69" transform="translate(126.367188 0.015625)"/>
       <use xlink:href="#DejaVuSans-Oblique-6c" transform="translate(154.150391 0.015625)"/>
       <use xlink:href="#DejaVuSans-Oblique-65" transform="translate(181.933594 0.015625)"/>
      </g>
     </g>
    </g>
   </g>
   <g id="matplotlib.axis_2">
    <g id="ytick_1">
     <g id="line2d_1">
      <path d="M 46.41 495.3814 
L 892.32 495.3814 
" clip-path="url(#p1736711c42)" style="fill: none; stroke: #cccccc; stroke-width: 0.8; stroke-linecap: round"/>
     </g>
     <g id="text_5">
      <!-- 0 -->
      <g style="fill: #262626" transform="translate(33.0475 499.180619) scale(0.1 -0.1)">
       <defs>
        <path id="DejaVuSans-30" d="M 2034 4250 
Q 1547 4250 1301 3770 
Q 1056 3291 1056 2328 
Q 1056 1369 1301 889 
Q 1547 409 2034 409 
Q 2525 409 2770 889 
Q 3016 1369 3016 2328 
Q 3016 3291 2770 3770 
Q 2525 4250 2034 4250 
z
M 2034 4750 
Q 2819 4750 3233 4129 
Q 3647 3509 3647 2328 
Q 3647 1150 3233 529 
Q 2819 -91 2034 -91 
Q 1250 -91 836 529 
Q 422 1150 422 2328 
Q 422 3509 836 4129 
Q 1250 4750 2034 4750 
z
" transform="scale(0.015625)"/>
       </defs>
       <use xlink:href="#DejaVuSans-30"/>
      </g>
     </g>
    </g>
    <g id="ytick_2">
     <g id="line2d_2">
      <path d="M 46.41 420.619067 
L 892.32 420.619067 
" clip-path="url(#p1736711c42)" style="fill: none; stroke: #cccccc; stroke-width: 0.8; stroke-linecap: round"/>
     </g>
     <g id="text_6">
      <!-- 10 -->
      <g style="fill: #262626" transform="translate(26.685 424.418285) scale(0.1 -0.1)">
       <use xlink:href="#DejaVuSans-31"/>
       <use xlink:href="#DejaVuSans-30" transform="translate(63.623047 0)"/>
      </g>
     </g>
    </g>
    <g id="ytick_3">
     <g id="line2d_3">
      <path d="M 46.41 345.856733 
L 892.32 345.856733 
" clip-path="url(#p1736711c42)" style="fill: none; stroke: #cccccc; stroke-width: 0.8; stroke-linecap: round"/>
     </g>
     <g id="text_7">
      <!-- 20 -->
      <g style="fill: #262626" transform="translate(26.685 349.655952) scale(0.1 -0.1)">
       <defs>
        <path id="DejaVuSans-32" d="M 1228 531 
L 3431 531 
L 3431 0 
L 469 0 
L 469 531 
Q 828 903 1448 1529 
Q 2069 2156 2228 2338 
Q 2531 2678 2651 2914 
Q 2772 3150 2772 3378 
Q 2772 3750 2511 3984 
Q 2250 4219 1831 4219 
Q 1534 4219 1204 4116 
Q 875 4013 500 3803 
L 500 4441 
Q 881 4594 1212 4672 
Q 1544 4750 1819 4750 
Q 2544 4750 2975 4387 
Q 3406 4025 3406 3419 
Q 3406 3131 3298 2873 
Q 3191 2616 2906 2266 
Q 2828 2175 2409 1742 
Q 1991 1309 1228 531 
z
" transform="scale(0.015625)"/>
       </defs>
       <use xlink:href="#DejaVuSans-32"/>
       <use xlink:href="#DejaVuSans-30" transform="translate(63.623047 0)"/>
      </g>
     </g>
    </g>
    <g id="ytick_4">
     <g id="line2d_4">
      <path d="M 46.41 271.0944 
L 892.32 271.0944 
" clip-path="url(#p1736711c42)" style="fill: none; stroke: #cccccc; stroke-width: 0.8; stroke-linecap: round"/>
     </g>
     <g id="text_8">
      <!-- 30 -->
      <g style="fill: #262626" transform="translate(26.685 274.893619) scale(0.1 -0.1)">
       <defs>
        <path id="DejaVuSans-33" d="M 2597 2516 
Q 3050 2419 3304 2112 
Q 3559 1806 3559 1356 
Q 3559 666 3084 287 
Q 2609 -91 1734 -91 
Q 1441 -91 1130 -33 
Q 819 25 488 141 
L 488 750 
Q 750 597 1062 519 
Q 1375 441 1716 441 
Q 2309 441 2620 675 
Q 2931 909 2931 1356 
Q 2931 1769 2642 2001 
Q 2353 2234 1838 2234 
L 1294 2234 
L 1294 2753 
L 1863 2753 
Q 2328 2753 2575 2939 
Q 2822 3125 2822 3475 
Q 2822 3834 2567 4026 
Q 2313 4219 1838 4219 
Q 1578 4219 1281 4162 
Q 984 4106 628 3988 
L 628 4550 
Q 988 4650 1302 4700 
Q 1616 4750 1894 4750 
Q 2613 4750 3031 4423 
Q 3450 4097 3450 3541 
Q 3450 3153 3228 2886 
Q 3006 2619 2597 2516 
z
" transform="scale(0.015625)"/>
       </defs>
       <use xlink:href="#DejaVuSans-33"/>
       <use xlink:href="#DejaVuSans-30" transform="translate(63.623047 0)"/>
      </g>
     </g>
    </g>
    <g id="ytick_5">
     <g id="line2d_5">
      <path d="M 46.41 196.332067 
L 892.32 196.332067 
" clip-path="url(#p1736711c42)" style="fill: none; stroke: #cccccc; stroke-width: 0.8; stroke-linecap: round"/>
     </g>
     <g id="text_9">
      <!-- 40 -->
      <g style="fill: #262626" transform="translate(26.685 200.131285) scale(0.1 -0.1)">
       <use xlink:href="#DejaVuSans-34"/>
       <use xlink:href="#DejaVuSans-30" transform="translate(63.623047 0)"/>
      </g>
     </g>
    </g>
    <g id="ytick_6">
     <g id="line2d_6">
      <path d="M 46.41 121.569733 
L 892.32 121.569733 
" clip-path="url(#p1736711c42)" style="fill: none; stroke: #cccccc; stroke-width: 0.8; stroke-linecap: round"/>
     </g>
     <g id="text_10">
      <!-- 50 -->
      <g style="fill: #262626" transform="translate(26.685 125.368952) scale(0.1 -0.1)">
       <defs>
        <path id="DejaVuSans-35" d="M 691 4666 
L 3169 4666 
L 3169 4134 
L 1269 4134 
L 1269 2991 
Q 1406 3038 1543 3061 
Q 1681 3084 1819 3084 
Q 2600 3084 3056 2656 
Q 3513 2228 3513 1497 
Q 3513 744 3044 326 
Q 2575 -91 1722 -91 
Q 1428 -91 1123 -41 
Q 819 9 494 109 
L 494 744 
Q 775 591 1075 516 
Q 1375 441 1709 441 
Q 2250 441 2565 725 
Q 2881 1009 2881 1497 
Q 2881 1984 2565 2268 
Q 2250 2553 1709 2553 
Q 1456 2553 1204 2497 
Q 953 2441 691 2322 
L 691 4666 
z
" transform="scale(0.015625)"/>
       </defs>
       <use xlink:href="#DejaVuSans-35"/>
       <use xlink:href="#DejaVuSans-30" transform="translate(63.623047 0)"/>
      </g>
     </g>
    </g>
    <g id="ytick_7">
     <g id="line2d_7">
      <path d="M 46.41 46.8074 
L 892.32 46.8074 
" clip-path="url(#p1736711c42)" style="fill: none; stroke: #cccccc; stroke-width: 0.8; stroke-linecap: round"/>
     </g>
     <g id="text_11">
      <!-- 60 -->
      <g style="fill: #262626" transform="translate(26.685 50.606619) scale(0.1 -0.1)">
       <use xlink:href="#DejaVuSans-36"/>
       <use xlink:href="#DejaVuSans-30" transform="translate(63.623047 0)"/>
      </g>
     </g>
    </g>
    <g id="text_12">
     <!-- Exact Match -->
     <g style="fill: #262626" transform="translate(19.3575 320.2744) rotate(-90) scale(0.16 -0.16)">
      <defs>
       <path id="DejaVuSans-45" d="M 628 4666 
L 3578 4666 
L 3578 4134 
L 1259 4134 
L 1259 2753 
L 3481 2753 
L 3481 2222 
L 1259 2222 
L 1259 531 
L 3634 531 
L 3634 0 
L 628 0 
L 628 4666 
z
" transform="scale(0.015625)"/>
       <path id="DejaVuSans-78" d="M 3513 3500 
L 2247 1797 
L 3578 0 
L 2900 0 
L 1881 1375 
L 863 0 
L 184 0 
L 1544 1831 
L 300 3500 
L 978 3500 
L 1906 2253 
L 2834 3500 
L 3513 3500 
z
" transform="scale(0.015625)"/>
       <path id="DejaVuSans-61" d="M 2194 1759 
Q 1497 1759 1228 1600 
Q 959 1441 959 1056 
Q 959 750 1161 570 
Q 1363 391 1709 391 
Q 2188 391 2477 730 
Q 2766 1069 2766 1631 
L 2766 1759 
L 2194 1759 
z
M 3341 1997 
L 3341 0 
L 2766 0 
L 2766 531 
Q 2569 213 2275 61 
Q 1981 -91 1556 -91 
Q 1019 -91 701 211 
Q 384 513 384 1019 
Q 384 1609 779 1909 
Q 1175 2209 1959 2209 
L 2766 2209 
L 2766 2266 
Q 2766 2663 2505 2880 
Q 2244 3097 1772 3097 
Q 1472 3097 1187 3025 
Q 903 2953 641 2809 
L 641 3341 
Q 956 3463 1253 3523 
Q 1550 3584 1831 3584 
Q 2591 3584 2966 3190 
Q 3341 2797 3341 1997 
z
" transform="scale(0.015625)"/>
       <path id="DejaVuSans-63" d="M 3122 3366 
L 3122 2828 
Q 2878 2963 2633 3030 
Q 2388 3097 2138 3097 
Q 1578 3097 1268 2742 
Q 959 2388 959 1747 
Q 959 1106 1268 751 
Q 1578 397 2138 397 
Q 2388 397 2633 464 
Q 2878 531 3122 666 
L 3122 134 
Q 2881 22 2623 -34 
Q 2366 -91 2075 -91 
Q 1284 -91 818 406 
Q 353 903 353 1747 
Q 353 2603 823 3093 
Q 1294 3584 2113 3584 
Q 2378 3584 2631 3529 
Q 2884 3475 3122 3366 
z
" transform="scale(0.015625)"/>
       <path id="DejaVuSans-74" d="M 1172 4494 
L 1172 3500 
L 2356 3500 
L 2356 3053 
L 1172 3053 
L 1172 1153 
Q 1172 725 1289 603 
Q 1406 481 1766 481 
L 2356 481 
L 2356 0 
L 1766 0 
Q 1100 0 847 248 
Q 594 497 594 1153 
L 594 3053 
L 172 3053 
L 172 3500 
L 594 3500 
L 594 4494 
L 1172 4494 
z
" transform="scale(0.015625)"/>
       <path id="DejaVuSans-20" transform="scale(0.015625)"/>
       <path id="DejaVuSans-4d" d="M 628 4666 
L 1569 4666 
L 2759 1491 
L 3956 4666 
L 4897 4666 
L 4897 0 
L 4281 0 
L 4281 4097 
L 3078 897 
L 2444 897 
L 1241 4097 
L 1241 0 
L 628 0 
L 628 4666 
z
" transform="scale(0.015625)"/>
       <path id="DejaVuSans-68" d="M 3513 2113 
L 3513 0 
L 2938 0 
L 2938 2094 
Q 2938 2591 2744 2837 
Q 2550 3084 2163 3084 
Q 1697 3084 1428 2787 
Q 1159 2491 1159 1978 
L 1159 0 
L 581 0 
L 581 4863 
L 1159 4863 
L 1159 2956 
Q 1366 3272 1645 3428 
Q 1925 3584 2291 3584 
Q 2894 3584 3203 3211 
Q 3513 2838 3513 2113 
z
" transform="scale(0.015625)"/>
      </defs>
      <use xlink:href="#DejaVuSans-45"/>
      <use xlink:href="#DejaVuSans-78" transform="translate(63.183594 0)"/>
      <use xlink:href="#DejaVuSans-61" transform="translate(122.363281 0)"/>
      <use xlink:href="#DejaVuSans-63" transform="translate(183.642578 0)"/>
      <use xlink:href="#DejaVuSans-74" transform="translate(238.623047 0)"/>
      <use xlink:href="#DejaVuSans-20" transform="translate(277.832031 0)"/>
      <use xlink:href="#DejaVuSans-4d" transform="translate(309.619141 0)"/>
      <use xlink:href="#DejaVuSans-61" transform="translate(395.898438 0)"/>
      <use xlink:href="#DejaVuSans-74" transform="translate(457.177734 0)"/>
      <use xlink:href="#DejaVuSans-63" transform="translate(496.386719 0)"/>
      <use xlink:href="#DejaVuSans-68" transform="translate(551.367188 0)"/>
     </g>
    </g>
   </g>
   <g id="patch_3">
    <path d="M 67.55775 495.3814 
L 95.75475 495.3814 
L 95.75475 130.541213 
L 67.55775 130.541213 
z
" clip-path="url(#p1736711c42)" style="fill: #c4dcf4; stroke: #ffffff; stroke-linejoin: miter"/>
   </g>
   <g id="patch_4">
    <path d="M 279.03525 495.3814 
L 307.23225 495.3814 
L 307.23225 139.512693 
L 279.03525 139.512693 
z
" clip-path="url(#p1736711c42)" style="fill: #c4dcf4; stroke: #ffffff; stroke-linejoin: miter"/>
   </g>
   <g id="patch_5">
    <path d="M 490.51275 495.3814 
L 518.70975 495.3814 
L 518.70975 299.504087 
L 490.51275 299.504087 
z
" clip-path="url(#p1736711c42)" style="fill: #c4dcf4; stroke: #ffffff; stroke-linejoin: miter"/>
   </g>
   <g id="patch_6">
    <path d="M 701.99025 495.3814 
L 730.18725 495.3814 
L 730.18725 247.918077 
L 701.99025 247.918077 
z
" clip-path="url(#p1736711c42)" style="fill: #c4dcf4; stroke: #ffffff; stroke-linejoin: miter"/>
   </g>
   <g id="patch_7">
    <path d="M 95.75475 495.3814 
L 123.95175 495.3814 
L 123.95175 132.784083 
L 95.75475 132.784083 
z
" clip-path="url(#p1736711c42)" style="fill: #f0cca8; stroke: #ffffff; stroke-linejoin: miter"/>
   </g>
   <g id="patch_8">
    <path d="M 307.23225 495.3814 
L 335.42925 495.3814 
L 335.42925 123.812603 
L 307.23225 123.812603 
z
" clip-path="url(#p1736711c42)" style="fill: #f0cca8; stroke: #ffffff; stroke-linejoin: miter"/>
   </g>
   <g id="patch_9">
    <path d="M 518.70975 495.3814 
L 546.90675 495.3814 
L 546.90675 292.027853 
L 518.70975 292.027853 
z
" clip-path="url(#p1736711c42)" style="fill: #f0cca8; stroke: #ffffff; stroke-linejoin: miter"/>
   </g>
   <g id="patch_10">
    <path d="M 730.18725 495.3814 
L 758.38425 495.3814 
L 758.38425 238.946597 
L 730.18725 238.946597 
z
" clip-path="url(#p1736711c42)" style="fill: #f0cca8; stroke: #ffffff; stroke-linejoin: miter"/>
   </g>
   <g id="patch_11">
    <path d="M 123.95175 495.3814 
L 152.14875 495.3814 
L 152.14875 157.455653 
L 123.95175 157.455653 
z
" clip-path="url(#p1736711c42)" style="fill: url(#h5eccc6b5f8); stroke: #ffffff; stroke-linejoin: miter"/>
   </g>
   <g id="patch_12">
    <path d="M 335.42925 495.3814 
L 363.62625 495.3814 
L 363.62625 161.941393 
L 335.42925 161.941393 
z
" clip-path="url(#p1736711c42)" style="fill: url(#h5eccc6b5f8); stroke: #ffffff; stroke-linejoin: miter"/>
   </g>
   <g id="patch_13">
    <path d="M 546.90675 495.3814 
L 575.10375 495.3814 
L 575.10375 301.746957 
L 546.90675 301.746957 
z
" clip-path="url(#p1736711c42)" style="fill: url(#h5eccc6b5f8); stroke: #ffffff; stroke-linejoin: miter"/>
   </g>
   <g id="patch_14">
    <path d="M 758.38425 495.3814 
L 786.58125 495.3814 
L 786.58125 248.6657 
L 758.38425 248.6657 
z
" clip-path="url(#p1736711c42)" style="fill: url(#h5eccc6b5f8); stroke: #ffffff; stroke-linejoin: miter"/>
   </g>
   <g id="patch_15">
    <path d="M 152.14875 495.3814 
L 180.34575 495.3814 
L 180.34575 164.931887 
L 152.14875 164.931887 
z
" clip-path="url(#p1736711c42)" style="fill: url(#h3f4bf949a0); stroke: #ffffff; stroke-linejoin: miter"/>
   </g>
   <g id="patch_16">
    <path d="M 363.62625 495.3814 
L 391.82325 495.3814 
L 391.82325 172.40812 
L 363.62625 172.40812 
z
" clip-path="url(#p1736711c42)" style="fill: url(#h3f4bf949a0); stroke: #ffffff; stroke-linejoin: miter"/>
   </g>
   <g id="patch_17">
    <path d="M 575.10375 495.3814 
L 603.30075 495.3814 
L 603.30075 326.418527 
L 575.10375 326.418527 
z
" clip-path="url(#p1736711c42)" style="fill: url(#h3f4bf949a0); stroke: #ffffff; stroke-linejoin: miter"/>
   </g>
   <g id="patch_18">
    <path d="M 786.58125 495.3814 
L 814.77825 495.3814 
L 814.77825 289.784983 
L 786.58125 289.784983 
z
" clip-path="url(#p1736711c42)" style="fill: url(#h3f4bf949a0); stroke: #ffffff; stroke-linejoin: miter"/>
   </g>
   <g id="patch_19">
    <path d="M 180.34575 495.3814 
L 208.54275 495.3814 
L 208.54275 179.13673 
L 180.34575 179.13673 
z
" clip-path="url(#p1736711c42)" style="fill: #b4d5a7; stroke: #ffffff; stroke-linejoin: miter"/>
   </g>
   <g id="patch_20">
    <path d="M 391.82325 495.3814 
L 420.02025 495.3814 
L 420.02025 167.92238 
L 391.82325 167.92238 
z
" clip-path="url(#p1736711c42)" style="fill: #b4d5a7; stroke: #ffffff; stroke-linejoin: miter"/>
   </g>
   <g id="patch_21">
    <path d="M 603.30075 495.3814 
L 631.49775 495.3814 
L 631.49775 307.727943 
L 603.30075 307.727943 
z
" clip-path="url(#p1736711c42)" style="fill: #b4d5a7; stroke: #ffffff; stroke-linejoin: miter"/>
   </g>
   <g id="patch_22">
    <path d="M 814.77825 495.3814 
L 842.97525 495.3814 
L 842.97525 268.85153 
L 814.77825 268.85153 
z
" clip-path="url(#p1736711c42)" style="fill: #b4d5a7; stroke: #ffffff; stroke-linejoin: miter"/>
   </g>
   <g id="patch_23">
    <path d="M 208.54275 495.3814 
L 236.73975 495.3814 
L 236.73975 495.3814 
L 208.54275 495.3814 
z
" clip-path="url(#p1736711c42)" style="fill: url(#h85f0d65d97); stroke: #ffffff; stroke-linejoin: miter"/>
   </g>
   <g id="patch_24">
    <path d="M 420.02025 495.3814 
L 448.21725 495.3814 
L 448.21725 495.3814 
L 420.02025 495.3814 
z
" clip-path="url(#p1736711c42)" style="fill: url(#h85f0d65d97); stroke: #ffffff; stroke-linejoin: miter"/>
   </g>
   <g id="patch_25">
    <path d="M 631.49775 495.3814 
L 659.69475 495.3814 
L 659.69475 298.00884 
L 631.49775 298.00884 
z
" clip-path="url(#p1736711c42)" style="fill: url(#h85f0d65d97); stroke: #ffffff; stroke-linejoin: miter"/>
   </g>
   <g id="patch_26">
    <path d="M 842.97525 495.3814 
L 871.17225 495.3814 
L 871.17225 251.656193 
L 842.97525 251.656193 
z
" clip-path="url(#p1736711c42)" style="fill: url(#h85f0d65d97); stroke: #ffffff; stroke-linejoin: miter"/>
   </g>
   <g id="patch_27">
    <path d="M 152.14875 495.3814 
L 152.14875 495.3814 
L 152.14875 495.3814 
L 152.14875 495.3814 
z
" clip-path="url(#p1736711c42)" style="fill: #c4dcf4; stroke: #ffffff; stroke-linejoin: miter"/>
   </g>
   <g id="patch_28">
    <path d="M 152.14875 495.3814 
L 152.14875 495.3814 
L 152.14875 495.3814 
L 152.14875 495.3814 
z
" clip-path="url(#p1736711c42)" style="fill: #f0cca8; stroke: #ffffff; stroke-linejoin: miter"/>
   </g>
   <g id="patch_29">
    <path d="M 152.14875 495.3814 
L 152.14875 495.3814 
L 152.14875 495.3814 
L 152.14875 495.3814 
z
" clip-path="url(#p1736711c42)" style="fill: #c4dcf4; stroke: #ffffff; stroke-linejoin: miter"/>
   </g>
   <g id="patch_30">
    <path d="M 152.14875 495.3814 
L 152.14875 495.3814 
L 152.14875 495.3814 
L 152.14875 495.3814 
z
" clip-path="url(#p1736711c42)" style="fill: #f0cca8; stroke: #ffffff; stroke-linejoin: miter"/>
   </g>
   <g id="patch_31">
    <path d="M 152.14875 495.3814 
L 152.14875 495.3814 
L 152.14875 495.3814 
L 152.14875 495.3814 
z
" clip-path="url(#p1736711c42)" style="fill: #b4d5a7; stroke: #ffffff; stroke-linejoin: miter"/>
   </g>
   <g id="patch_32">
    <path d="M 152.14875 495.3814 
L 152.14875 495.3814 
L 152.14875 495.3814 
L 152.14875 495.3814 
z
" clip-path="url(#p1736711c42)" style="fill: #c4dcf4; stroke: #ffffff; stroke-linejoin: miter"/>
   </g>
   <g id="patch_33">
    <path d="M 46.41 495.3814 
L 46.41 46.8074 
" style="fill: none; stroke: #cccccc; stroke-width: 0.8; stroke-linejoin: miter; stroke-linecap: square"/>
   </g>
   <g id="patch_34">
    <path d="M 892.32 495.3814 
L 892.32 46.8074 
" style="fill: none; stroke: #cccccc; stroke-width: 0.8; stroke-linejoin: miter; stroke-linecap: square"/>
   </g>
   <g id="patch_35">
    <path d="M 46.41 495.3814 
L 892.32 495.3814 
" style="fill: none; stroke: #cccccc; stroke-width: 0.8; stroke-linejoin: miter; stroke-linecap: square"/>
   </g>
   <g id="patch_36">
    <path d="M 46.41 46.8074 
L 892.32 46.8074 
" style="fill: none; stroke: #cccccc; stroke-width: 0.8; stroke-linejoin: miter; stroke-linecap: square"/>
   </g>
   <g id="text_13">
    <!-- $\mathbf{48.8}$ -->
    <g style="fill: #262626" transform="translate(69.40625 128.461526) scale(0.1 -0.1)">
     <defs>
      <path id="DejaVuSans-Bold-34" d="M 2356 3675 
L 1038 1722 
L 2356 1722 
L 2356 3675 
z
M 2156 4666 
L 3494 4666 
L 3494 1722 
L 4159 1722 
L 4159 850 
L 3494 850 
L 3494 0 
L 2356 0 
L 2356 850 
L 288 850 
L 288 1881 
L 2156 4666 
z
" transform="scale(0.015625)"/>
      <path id="DejaVuSans-Bold-38" d="M 2228 2088 
Q 1891 2088 1709 1903 
Q 1528 1719 1528 1375 
Q 1528 1031 1709 848 
Q 1891 666 2228 666 
Q 2563 666 2741 848 
Q 2919 1031 2919 1375 
Q 2919 1722 2741 1905 
Q 2563 2088 2228 2088 
z
M 1350 2484 
Q 925 2613 709 2878 
Q 494 3144 494 3541 
Q 494 4131 934 4440 
Q 1375 4750 2228 4750 
Q 3075 4750 3515 4442 
Q 3956 4134 3956 3541 
Q 3956 3144 3739 2878 
Q 3522 2613 3097 2484 
Q 3572 2353 3814 2058 
Q 4056 1763 4056 1313 
Q 4056 619 3595 264 
Q 3134 -91 2228 -91 
Q 1319 -91 855 264 
Q 391 619 391 1313 
Q 391 1763 633 2058 
Q 875 2353 1350 2484 
z
M 1631 3419 
Q 1631 3141 1786 2991 
Q 1941 2841 2228 2841 
Q 2509 2841 2662 2991 
Q 2816 3141 2816 3419 
Q 2816 3697 2662 3845 
Q 2509 3994 2228 3994 
Q 1941 3994 1786 3844 
Q 1631 3694 1631 3419 
z
" transform="scale(0.015625)"/>
      <path id="DejaVuSans-Bold-2e" d="M 653 1209 
L 1778 1209 
L 1778 0 
L 653 0 
L 653 1209 
z
" transform="scale(0.015625)"/>
     </defs>
     <use xlink:href="#DejaVuSans-Bold-34" transform="translate(0 0.78125)"/>
     <use xlink:href="#DejaVuSans-Bold-38" transform="translate(69.580078 0.78125)"/>
     <use xlink:href="#DejaVuSans-Bold-2e" transform="translate(139.160156 0.78125)"/>
     <use xlink:href="#DejaVuSans-Bold-38" transform="translate(175.398438 0.78125)"/>
    </g>
   </g>
   <g id="text_14">
    <!-- 47.6 -->
    <g style="fill: #262626" transform="translate(282.000938 137.433006) scale(0.1 -0.1)">
     <defs>
      <path id="DejaVuSans-37" d="M 525 4666 
L 3525 4666 
L 3525 4397 
L 1831 0 
L 1172 0 
L 2766 4134 
L 525 4134 
L 525 4666 
z
" transform="scale(0.015625)"/>
      <path id="DejaVuSans-2e" d="M 684 794 
L 1344 794 
L 1344 0 
L 684 0 
L 684 794 
z
" transform="scale(0.015625)"/>
     </defs>
     <use xlink:href="#DejaVuSans-34"/>
     <use xlink:href="#DejaVuSans-37" transform="translate(63.623047 0)"/>
     <use xlink:href="#DejaVuSans-2e" transform="translate(127.246094 0)"/>
     <use xlink:href="#DejaVuSans-36" transform="translate(159.033203 0)"/>
    </g>
   </g>
   <g id="text_15">
    <!-- 26.2 -->
    <g style="fill: #262626" transform="translate(493.478437 297.424399) scale(0.1 -0.1)">
     <use xlink:href="#DejaVuSans-32"/>
     <use xlink:href="#DejaVuSans-36" transform="translate(63.623047 0)"/>
     <use xlink:href="#DejaVuSans-2e" transform="translate(127.246094 0)"/>
     <use xlink:href="#DejaVuSans-32" transform="translate(159.033203 0)"/>
    </g>
   </g>
   <g id="text_16">
    <!-- 33.1 -->
    <g style="fill: #262626" transform="translate(704.955938 245.838389) scale(0.1 -0.1)">
     <use xlink:href="#DejaVuSans-33"/>
     <use xlink:href="#DejaVuSans-33" transform="translate(63.623047 0)"/>
     <use xlink:href="#DejaVuSans-2e" transform="translate(127.246094 0)"/>
     <use xlink:href="#DejaVuSans-31" transform="translate(159.033203 0)"/>
    </g>
   </g>
   <g id="text_17">
    <!-- 48.5 -->
    <g style="fill: #262626" transform="translate(98.720438 130.704396) scale(0.1 -0.1)">
     <defs>
      <path id="DejaVuSans-38" d="M 2034 2216 
Q 1584 2216 1326 1975 
Q 1069 1734 1069 1313 
Q 1069 891 1326 650 
Q 1584 409 2034 409 
Q 2484 409 2743 651 
Q 3003 894 3003 1313 
Q 3003 1734 2745 1975 
Q 2488 2216 2034 2216 
z
M 1403 2484 
Q 997 2584 770 2862 
Q 544 3141 544 3541 
Q 544 4100 942 4425 
Q 1341 4750 2034 4750 
Q 2731 4750 3128 4425 
Q 3525 4100 3525 3541 
Q 3525 3141 3298 2862 
Q 3072 2584 2669 2484 
Q 3125 2378 3379 2068 
Q 3634 1759 3634 1313 
Q 3634 634 3220 271 
Q 2806 -91 2034 -91 
Q 1263 -91 848 271 
Q 434 634 434 1313 
Q 434 1759 690 2068 
Q 947 2378 1403 2484 
z
M 1172 3481 
Q 1172 3119 1398 2916 
Q 1625 2713 2034 2713 
Q 2441 2713 2670 2916 
Q 2900 3119 2900 3481 
Q 2900 3844 2670 4047 
Q 2441 4250 2034 4250 
Q 1625 4250 1398 4047 
Q 1172 3844 1172 3481 
z
" transform="scale(0.015625)"/>
     </defs>
     <use xlink:href="#DejaVuSans-34"/>
     <use xlink:href="#DejaVuSans-38" transform="translate(63.623047 0)"/>
     <use xlink:href="#DejaVuSans-2e" transform="translate(127.246094 0)"/>
     <use xlink:href="#DejaVuSans-35" transform="translate(159.033203 0)"/>
    </g>
   </g>
   <g id="text_18">
    <!-- $\mathbf{49.7}$ -->
    <g style="fill: #262626" transform="translate(308.98075 121.732916) scale(0.1 -0.1)">
     <defs>
      <path id="DejaVuSans-Bold-39" d="M 641 103 
L 641 966 
Q 928 831 1190 764 
Q 1453 697 1709 697 
Q 2247 697 2547 995 
Q 2847 1294 2900 1881 
Q 2688 1725 2447 1647 
Q 2206 1569 1925 1569 
Q 1209 1569 770 1986 
Q 331 2403 331 3084 
Q 331 3838 820 4291 
Q 1309 4744 2131 4744 
Q 3044 4744 3544 4128 
Q 4044 3513 4044 2388 
Q 4044 1231 3459 570 
Q 2875 -91 1856 -91 
Q 1528 -91 1228 -42 
Q 928 6 641 103 
z
M 2125 2350 
Q 2441 2350 2600 2554 
Q 2759 2759 2759 3169 
Q 2759 3575 2600 3781 
Q 2441 3988 2125 3988 
Q 1809 3988 1650 3781 
Q 1491 3575 1491 3169 
Q 1491 2759 1650 2554 
Q 1809 2350 2125 2350 
z
" transform="scale(0.015625)"/>
      <path id="DejaVuSans-Bold-37" d="M 428 4666 
L 3944 4666 
L 3944 3988 
L 2125 0 
L 953 0 
L 2675 3781 
L 428 3781 
L 428 4666 
z
" transform="scale(0.015625)"/>
     </defs>
     <use xlink:href="#DejaVuSans-Bold-34" transform="translate(0 0.875)"/>
     <use xlink:href="#DejaVuSans-Bold-39" transform="translate(69.580078 0.875)"/>
     <use xlink:href="#DejaVuSans-Bold-2e" transform="translate(139.160156 0.875)"/>
     <use xlink:href="#DejaVuSans-Bold-37" transform="translate(177.148438 0.875)"/>
    </g>
   </g>
   <g id="text_19">
    <!-- $\mathbf{27.2}$ -->
    <g style="fill: #262626" transform="translate(520.65825 289.948166) scale(0.1 -0.1)">
     <defs>
      <path id="DejaVuSans-Bold-32" d="M 1844 884 
L 3897 884 
L 3897 0 
L 506 0 
L 506 884 
L 2209 2388 
Q 2438 2594 2547 2791 
Q 2656 2988 2656 3200 
Q 2656 3528 2436 3728 
Q 2216 3928 1850 3928 
Q 1569 3928 1234 3808 
Q 900 3688 519 3450 
L 519 4475 
Q 925 4609 1322 4679 
Q 1719 4750 2100 4750 
Q 2938 4750 3402 4381 
Q 3866 4013 3866 3353 
Q 3866 2972 3669 2642 
Q 3472 2313 2841 1759 
L 1844 884 
z
" transform="scale(0.015625)"/>
     </defs>
     <use xlink:href="#DejaVuSans-Bold-32" transform="translate(0 0.78125)"/>
     <use xlink:href="#DejaVuSans-Bold-37" transform="translate(69.580078 0.78125)"/>
     <use xlink:href="#DejaVuSans-Bold-2e" transform="translate(139.160156 0.78125)"/>
     <use xlink:href="#DejaVuSans-Bold-32" transform="translate(172.648438 0.78125)"/>
    </g>
   </g>
   <g id="text_20">
    <!-- $\mathbf{34.3}$ -->
    <g style="fill: #262626" transform="translate(731.93575 236.866909) scale(0.1 -0.1)">
     <defs>
      <path id="DejaVuSans-Bold-33" d="M 2981 2516 
Q 3453 2394 3698 2092 
Q 3944 1791 3944 1325 
Q 3944 631 3412 270 
Q 2881 -91 1863 -91 
Q 1503 -91 1142 -33 
Q 781 25 428 141 
L 428 1069 
Q 766 900 1098 814 
Q 1431 728 1753 728 
Q 2231 728 2486 893 
Q 2741 1059 2741 1369 
Q 2741 1688 2480 1852 
Q 2219 2016 1709 2016 
L 1228 2016 
L 1228 2791 
L 1734 2791 
Q 2188 2791 2409 2933 
Q 2631 3075 2631 3366 
Q 2631 3634 2415 3781 
Q 2200 3928 1806 3928 
Q 1516 3928 1219 3862 
Q 922 3797 628 3669 
L 628 4550 
Q 984 4650 1334 4700 
Q 1684 4750 2022 4750 
Q 2931 4750 3382 4451 
Q 3834 4153 3834 3553 
Q 3834 3144 3618 2883 
Q 3403 2622 2981 2516 
z
" transform="scale(0.015625)"/>
     </defs>
     <use xlink:href="#DejaVuSans-Bold-33" transform="translate(0 0.78125)"/>
     <use xlink:href="#DejaVuSans-Bold-34" transform="translate(69.580078 0.78125)"/>
     <use xlink:href="#DejaVuSans-Bold-2e" transform="translate(139.160156 0.78125)"/>
     <use xlink:href="#DejaVuSans-Bold-33" transform="translate(177.148438 0.78125)"/>
    </g>
   </g>
   <g id="text_21">
    <!-- 45.2 -->
    <g style="fill: #262626" transform="translate(126.917438 155.375966) scale(0.1 -0.1)">
     <use xlink:href="#DejaVuSans-34"/>
     <use xlink:href="#DejaVuSans-35" transform="translate(63.623047 0)"/>
     <use xlink:href="#DejaVuSans-2e" transform="translate(127.246094 0)"/>
     <use xlink:href="#DejaVuSans-32" transform="translate(159.033203 0)"/>
    </g>
   </g>
   <g id="text_22">
    <!-- 44.6 -->
    <g style="fill: #262626" transform="translate(338.394938 159.861706) scale(0.1 -0.1)">
     <use xlink:href="#DejaVuSans-34"/>
     <use xlink:href="#DejaVuSans-34" transform="translate(63.623047 0)"/>
     <use xlink:href="#DejaVuSans-2e" transform="translate(127.246094 0)"/>
     <use xlink:href="#DejaVuSans-36" transform="translate(159.033203 0)"/>
    </g>
   </g>
   <g id="text_23">
    <!-- 25.9 -->
    <g style="fill: #262626" transform="translate(549.872438 299.667269) scale(0.1 -0.1)">
     <defs>
      <path id="DejaVuSans-39" d="M 703 97 
L 703 672 
Q 941 559 1184 500 
Q 1428 441 1663 441 
Q 2288 441 2617 861 
Q 2947 1281 2994 2138 
Q 2813 1869 2534 1725 
Q 2256 1581 1919 1581 
Q 1219 1581 811 2004 
Q 403 2428 403 3163 
Q 403 3881 828 4315 
Q 1253 4750 1959 4750 
Q 2769 4750 3195 4129 
Q 3622 3509 3622 2328 
Q 3622 1225 3098 567 
Q 2575 -91 1691 -91 
Q 1453 -91 1209 -44 
Q 966 3 703 97 
z
M 1959 2075 
Q 2384 2075 2632 2365 
Q 2881 2656 2881 3163 
Q 2881 3666 2632 3958 
Q 2384 4250 1959 4250 
Q 1534 4250 1286 3958 
Q 1038 3666 1038 3163 
Q 1038 2656 1286 2365 
Q 1534 2075 1959 2075 
z
" transform="scale(0.015625)"/>
     </defs>
     <use xlink:href="#DejaVuSans-32"/>
     <use xlink:href="#DejaVuSans-35" transform="translate(63.623047 0)"/>
     <use xlink:href="#DejaVuSans-2e" transform="translate(127.246094 0)"/>
     <use xlink:href="#DejaVuSans-39" transform="translate(159.033203 0)"/>
    </g>
   </g>
   <g id="text_24">
    <!-- 33.0 -->
    <g style="fill: #262626" transform="translate(761.349938 246.586013) scale(0.1 -0.1)">
     <use xlink:href="#DejaVuSans-33"/>
     <use xlink:href="#DejaVuSans-33" transform="translate(63.623047 0)"/>
     <use xlink:href="#DejaVuSans-2e" transform="translate(127.246094 0)"/>
     <use xlink:href="#DejaVuSans-30" transform="translate(159.033203 0)"/>
    </g>
   </g>
   <g id="text_25">
    <!-- 44.2 -->
    <g style="fill: #262626" transform="translate(155.114438 162.852199) scale(0.1 -0.1)">
     <use xlink:href="#DejaVuSans-34"/>
     <use xlink:href="#DejaVuSans-34" transform="translate(63.623047 0)"/>
     <use xlink:href="#DejaVuSans-2e" transform="translate(127.246094 0)"/>
     <use xlink:href="#DejaVuSans-32" transform="translate(159.033203 0)"/>
    </g>
   </g>
   <g id="text_26">
    <!-- 43.2 -->
    <g style="fill: #262626" transform="translate(366.591938 170.328433) scale(0.1 -0.1)">
     <use xlink:href="#DejaVuSans-34"/>
     <use xlink:href="#DejaVuSans-33" transform="translate(63.623047 0)"/>
     <use xlink:href="#DejaVuSans-2e" transform="translate(127.246094 0)"/>
     <use xlink:href="#DejaVuSans-32" transform="translate(159.033203 0)"/>
    </g>
   </g>
   <g id="text_27">
    <!-- 22.6 -->
    <g style="fill: #262626" transform="translate(578.069438 324.338839) scale(0.1 -0.1)">
     <use xlink:href="#DejaVuSans-32"/>
     <use xlink:href="#DejaVuSans-32" transform="translate(63.623047 0)"/>
     <use xlink:href="#DejaVuSans-2e" transform="translate(127.246094 0)"/>
     <use xlink:href="#DejaVuSans-36" transform="translate(159.033203 0)"/>
    </g>
   </g>
   <g id="text_28">
    <!-- 27.5 -->
    <g style="fill: #262626" transform="translate(789.546938 287.705296) scale(0.1 -0.1)">
     <use xlink:href="#DejaVuSans-32"/>
     <use xlink:href="#DejaVuSans-37" transform="translate(63.623047 0)"/>
     <use xlink:href="#DejaVuSans-2e" transform="translate(127.246094 0)"/>
     <use xlink:href="#DejaVuSans-35" transform="translate(159.033203 0)"/>
    </g>
   </g>
   <g id="text_29">
    <!-- 42.3 -->
    <g style="fill: #262626" transform="translate(183.311438 177.057043) scale(0.1 -0.1)">
     <use xlink:href="#DejaVuSans-34"/>
     <use xlink:href="#DejaVuSans-32" transform="translate(63.623047 0)"/>
     <use xlink:href="#DejaVuSans-2e" transform="translate(127.246094 0)"/>
     <use xlink:href="#DejaVuSans-33" transform="translate(159.033203 0)"/>
    </g>
   </g>
   <g id="text_30">
    <!-- 43.8 -->
    <g style="fill: #262626" transform="translate(394.788938 165.842693) scale(0.1 -0.1)">
     <use xlink:href="#DejaVuSans-34"/>
     <use xlink:href="#DejaVuSans-33" transform="translate(63.623047 0)"/>
     <use xlink:href="#DejaVuSans-2e" transform="translate(127.246094 0)"/>
     <use xlink:href="#DejaVuSans-38" transform="translate(159.033203 0)"/>
    </g>
   </g>
   <g id="text_31">
    <!-- 25.1 -->
    <g style="fill: #262626" transform="translate(606.266438 305.648256) scale(0.1 -0.1)">
     <use xlink:href="#DejaVuSans-32"/>
     <use xlink:href="#DejaVuSans-35" transform="translate(63.623047 0)"/>
     <use xlink:href="#DejaVuSans-2e" transform="translate(127.246094 0)"/>
     <use xlink:href="#DejaVuSans-31" transform="translate(159.033203 0)"/>
    </g>
   </g>
   <g id="text_32">
    <!-- 30.3 -->
    <g style="fill: #262626" transform="translate(817.743938 266.771843) scale(0.1 -0.1)">
     <use xlink:href="#DejaVuSans-33"/>
     <use xlink:href="#DejaVuSans-30" transform="translate(63.623047 0)"/>
     <use xlink:href="#DejaVuSans-2e" transform="translate(127.246094 0)"/>
     <use xlink:href="#DejaVuSans-33" transform="translate(159.033203 0)"/>
    </g>
   </g>
   <g id="text_33">
    <!-- 0.0 -->
    <g style="fill: #262626" transform="translate(214.689688 493.301713) scale(0.1 -0.1)">
     <use xlink:href="#DejaVuSans-30"/>
     <use xlink:href="#DejaVuSans-2e" transform="translate(63.623047 0)"/>
     <use xlink:href="#DejaVuSans-30" transform="translate(95.410156 0)"/>
    </g>
   </g>
   <g id="text_34">
    <!-- 0.0 -->
    <g style="fill: #262626" transform="translate(426.167188 493.301713) scale(0.1 -0.1)">
     <use xlink:href="#DejaVuSans-30"/>
     <use xlink:href="#DejaVuSans-2e" transform="translate(63.623047 0)"/>
     <use xlink:href="#DejaVuSans-30" transform="translate(95.410156 0)"/>
    </g>
   </g>
   <g id="text_35">
    <!-- 26.4 -->
    <g style="fill: #262626" transform="translate(634.463438 295.929153) scale(0.1 -0.1)">
     <use xlink:href="#DejaVuSans-32"/>
     <use xlink:href="#DejaVuSans-36" transform="translate(63.623047 0)"/>
     <use xlink:href="#DejaVuSans-2e" transform="translate(127.246094 0)"/>
     <use xlink:href="#DejaVuSans-34" transform="translate(159.033203 0)"/>
    </g>
   </g>
   <g id="text_36">
    <!-- 32.6 -->
    <g style="fill: #262626" transform="translate(845.940938 249.576506) scale(0.1 -0.1)">
     <use xlink:href="#DejaVuSans-33"/>
     <use xlink:href="#DejaVuSans-32" transform="translate(63.623047 0)"/>
     <use xlink:href="#DejaVuSans-2e" transform="translate(127.246094 0)"/>
     <use xlink:href="#DejaVuSans-36" transform="translate(159.033203 0)"/>
    </g>
   </g>
   <g id="legend_1">
    <g id="patch_37">
     <path d="M 12.016992 37.519734 
L 926.713008 37.519734 
Q 928.813008 37.519734 928.813008 35.419734 
L 928.813008 9.3 
Q 928.813008 7.2 926.713008 7.2 
L 12.016992 7.2 
Q 9.916992 7.2 9.916992 9.3 
L 9.916992 35.419734 
Q 9.916992 37.519734 12.016992 37.519734 
z
" style="fill: #ffffff; opacity: 0.8; stroke: #cccccc; stroke-linejoin: miter"/>
    </g>
    <g id="patch_38">
     <path d="M 14.116992 26.349047 
L 35.116992 26.349047 
L 35.116992 18.999047 
L 14.116992 18.999047 
z
" style="fill: url(#hbf113dea14); stroke: #ffffff; stroke-linejoin: miter"/>
    </g>
    <g id="text_37">
     <!-- OpenCoder 1.5B -->
     <g style="fill: #262626" transform="translate(43.516992 26.349047) scale(0.105 -0.105)">
      <defs>
       <path id="DejaVuSans-4f" d="M 2522 4238 
Q 1834 4238 1429 3725 
Q 1025 3213 1025 2328 
Q 1025 1447 1429 934 
Q 1834 422 2522 422 
Q 3209 422 3611 934 
Q 4013 1447 4013 2328 
Q 4013 3213 3611 3725 
Q 3209 4238 2522 4238 
z
M 2522 4750 
Q 3503 4750 4090 4092 
Q 4678 3434 4678 2328 
Q 4678 1225 4090 567 
Q 3503 -91 2522 -91 
Q 1538 -91 948 565 
Q 359 1222 359 2328 
Q 359 3434 948 4092 
Q 1538 4750 2522 4750 
z
" transform="scale(0.015625)"/>
       <path id="DejaVuSans-70" d="M 1159 525 
L 1159 -1331 
L 581 -1331 
L 581 3500 
L 1159 3500 
L 1159 2969 
Q 1341 3281 1617 3432 
Q 1894 3584 2278 3584 
Q 2916 3584 3314 3078 
Q 3713 2572 3713 1747 
Q 3713 922 3314 415 
Q 2916 -91 2278 -91 
Q 1894 -91 1617 61 
Q 1341 213 1159 525 
z
M 3116 1747 
Q 3116 2381 2855 2742 
Q 2594 3103 2138 3103 
Q 1681 3103 1420 2742 
Q 1159 2381 1159 1747 
Q 1159 1113 1420 752 
Q 1681 391 2138 391 
Q 2594 391 2855 752 
Q 3116 1113 3116 1747 
z
" transform="scale(0.015625)"/>
       <path id="DejaVuSans-65" d="M 3597 1894 
L 3597 1613 
L 953 1613 
Q 991 1019 1311 708 
Q 1631 397 2203 397 
Q 2534 397 2845 478 
Q 3156 559 3463 722 
L 3463 178 
Q 3153 47 2828 -22 
Q 2503 -91 2169 -91 
Q 1331 -91 842 396 
Q 353 884 353 1716 
Q 353 2575 817 3079 
Q 1281 3584 2069 3584 
Q 2775 3584 3186 3129 
Q 3597 2675 3597 1894 
z
M 3022 2063 
Q 3016 2534 2758 2815 
Q 2500 3097 2075 3097 
Q 1594 3097 1305 2825 
Q 1016 2553 972 2059 
L 3022 2063 
z
" transform="scale(0.015625)"/>
       <path id="DejaVuSans-6e" d="M 3513 2113 
L 3513 0 
L 2938 0 
L 2938 2094 
Q 2938 2591 2744 2837 
Q 2550 3084 2163 3084 
Q 1697 3084 1428 2787 
Q 1159 2491 1159 1978 
L 1159 0 
L 581 0 
L 581 3500 
L 1159 3500 
L 1159 2956 
Q 1366 3272 1645 3428 
Q 1925 3584 2291 3584 
Q 2894 3584 3203 3211 
Q 3513 2838 3513 2113 
z
" transform="scale(0.015625)"/>
       <path id="DejaVuSans-43" d="M 4122 4306 
L 4122 3641 
Q 3803 3938 3442 4084 
Q 3081 4231 2675 4231 
Q 1875 4231 1450 3742 
Q 1025 3253 1025 2328 
Q 1025 1406 1450 917 
Q 1875 428 2675 428 
Q 3081 428 3442 575 
Q 3803 722 4122 1019 
L 4122 359 
Q 3791 134 3420 21 
Q 3050 -91 2638 -91 
Q 1578 -91 968 557 
Q 359 1206 359 2328 
Q 359 3453 968 4101 
Q 1578 4750 2638 4750 
Q 3056 4750 3426 4639 
Q 3797 4528 4122 4306 
z
" transform="scale(0.015625)"/>
       <path id="DejaVuSans-6f" d="M 1959 3097 
Q 1497 3097 1228 2736 
Q 959 2375 959 1747 
Q 959 1119 1226 758 
Q 1494 397 1959 397 
Q 2419 397 2687 759 
Q 2956 1122 2956 1747 
Q 2956 2369 2687 2733 
Q 2419 3097 1959 3097 
z
M 1959 3584 
Q 2709 3584 3137 3096 
Q 3566 2609 3566 1747 
Q 3566 888 3137 398 
Q 2709 -91 1959 -91 
Q 1206 -91 779 398 
Q 353 888 353 1747 
Q 353 2609 779 3096 
Q 1206 3584 1959 3584 
z
" transform="scale(0.015625)"/>
       <path id="DejaVuSans-64" d="M 2906 2969 
L 2906 4863 
L 3481 4863 
L 3481 0 
L 2906 0 
L 2906 525 
Q 2725 213 2448 61 
Q 2172 -91 1784 -91 
Q 1150 -91 751 415 
Q 353 922 353 1747 
Q 353 2572 751 3078 
Q 1150 3584 1784 3584 
Q 2172 3584 2448 3432 
Q 2725 3281 2906 2969 
z
M 947 1747 
Q 947 1113 1208 752 
Q 1469 391 1925 391 
Q 2381 391 2643 752 
Q 2906 1113 2906 1747 
Q 2906 2381 2643 2742 
Q 2381 3103 1925 3103 
Q 1469 3103 1208 2742 
Q 947 2381 947 1747 
z
" transform="scale(0.015625)"/>
       <path id="DejaVuSans-72" d="M 2631 2963 
Q 2534 3019 2420 3045 
Q 2306 3072 2169 3072 
Q 1681 3072 1420 2755 
Q 1159 2438 1159 1844 
L 1159 0 
L 581 0 
L 581 3500 
L 1159 3500 
L 1159 2956 
Q 1341 3275 1631 3429 
Q 1922 3584 2338 3584 
Q 2397 3584 2469 3576 
Q 2541 3569 2628 3553 
L 2631 2963 
z
" transform="scale(0.015625)"/>
       <path id="DejaVuSans-42" d="M 1259 2228 
L 1259 519 
L 2272 519 
Q 2781 519 3026 730 
Q 3272 941 3272 1375 
Q 3272 1813 3026 2020 
Q 2781 2228 2272 2228 
L 1259 2228 
z
M 1259 4147 
L 1259 2741 
L 2194 2741 
Q 2656 2741 2882 2914 
Q 3109 3088 3109 3444 
Q 3109 3797 2882 3972 
Q 2656 4147 2194 4147 
L 1259 4147 
z
M 628 4666 
L 2241 4666 
Q 2963 4666 3353 4366 
Q 3744 4066 3744 3513 
Q 3744 3084 3544 2831 
Q 3344 2578 2956 2516 
Q 3422 2416 3680 2098 
Q 3938 1781 3938 1306 
Q 3938 681 3513 340 
Q 3088 0 2303 0 
L 628 0 
L 628 4666 
z
" transform="scale(0.015625)"/>
      </defs>
      <use xlink:href="#DejaVuSans-4f"/>
      <use xlink:href="#DejaVuSans-70" transform="translate(78.710938 0)"/>
      <use xlink:href="#DejaVuSans-65" transform="translate(142.1875 0)"/>
      <use xlink:href="#DejaVuSans-6e" transform="translate(203.710938 0)"/>
      <use xlink:href="#DejaVuSans-43" transform="translate(267.089844 0)"/>
      <use xlink:href="#DejaVuSans-6f" transform="translate(336.914062 0)"/>
      <use xlink:href="#DejaVuSans-64" transform="translate(398.095703 0)"/>
      <use xlink:href="#DejaVuSans-65" transform="translate(461.572266 0)"/>
      <use xlink:href="#DejaVuSans-72" transform="translate(523.095703 0)"/>
      <use xlink:href="#DejaVuSans-20" transform="translate(564.208984 0)"/>
      <use xlink:href="#DejaVuSans-31" transform="translate(595.996094 0)"/>
      <use xlink:href="#DejaVuSans-2e" transform="translate(659.619141 0)"/>
      <use xlink:href="#DejaVuSans-35" transform="translate(691.40625 0)"/>
      <use xlink:href="#DejaVuSans-42" transform="translate(755.029297 0)"/>
     </g>
    </g>
    <g id="patch_39">
     <path d="M 151.002539 26.349047 
L 172.002539 26.349047 
L 172.002539 18.999047 
L 151.002539 18.999047 
z
" style="fill: #bcdcfc; stroke: #ffffff; stroke-linejoin: miter"/>
    </g>
    <g id="text_38">
     <!-- OpenCoder 1.5B -->
     <g style="fill: #262626" transform="translate(180.402539 19.378359) scale(0.105 -0.105)">
      <use xlink:href="#DejaVuSans-4f"/>
      <use xlink:href="#DejaVuSans-70" transform="translate(78.710938 0)"/>
      <use xlink:href="#DejaVuSans-65" transform="translate(142.1875 0)"/>
      <use xlink:href="#DejaVuSans-6e" transform="translate(203.710938 0)"/>
      <use xlink:href="#DejaVuSans-43" transform="translate(267.089844 0)"/>
      <use xlink:href="#DejaVuSans-6f" transform="translate(336.914062 0)"/>
      <use xlink:href="#DejaVuSans-64" transform="translate(398.095703 0)"/>
      <use xlink:href="#DejaVuSans-65" transform="translate(461.572266 0)"/>
      <use xlink:href="#DejaVuSans-72" transform="translate(523.095703 0)"/>
      <use xlink:href="#DejaVuSans-20" transform="translate(564.208984 0)"/>
      <use xlink:href="#DejaVuSans-31" transform="translate(595.996094 0)"/>
      <use xlink:href="#DejaVuSans-2e" transform="translate(659.619141 0)"/>
      <use xlink:href="#DejaVuSans-35" transform="translate(691.40625 0)"/>
      <use xlink:href="#DejaVuSans-42" transform="translate(755.029297 0)"/>
     </g>
     <!-- Path Distance .py pretr. -->
     <g style="fill: #262626" transform="translate(180.402539 31.136062) scale(0.105 -0.105)">
      <defs>
       <path id="DejaVuSans-69" d="M 603 3500 
L 1178 3500 
L 1178 0 
L 603 0 
L 603 3500 
z
M 603 4863 
L 1178 4863 
L 1178 4134 
L 603 4134 
L 603 4863 
z
" transform="scale(0.015625)"/>
       <path id="DejaVuSans-73" d="M 2834 3397 
L 2834 2853 
Q 2591 2978 2328 3040 
Q 2066 3103 1784 3103 
Q 1356 3103 1142 2972 
Q 928 2841 928 2578 
Q 928 2378 1081 2264 
Q 1234 2150 1697 2047 
L 1894 2003 
Q 2506 1872 2764 1633 
Q 3022 1394 3022 966 
Q 3022 478 2636 193 
Q 2250 -91 1575 -91 
Q 1294 -91 989 -36 
Q 684 19 347 128 
L 347 722 
Q 666 556 975 473 
Q 1284 391 1588 391 
Q 1994 391 2212 530 
Q 2431 669 2431 922 
Q 2431 1156 2273 1281 
Q 2116 1406 1581 1522 
L 1381 1569 
Q 847 1681 609 1914 
Q 372 2147 372 2553 
Q 372 3047 722 3315 
Q 1072 3584 1716 3584 
Q 2034 3584 2315 3537 
Q 2597 3491 2834 3397 
z
" transform="scale(0.015625)"/>
       <path id="DejaVuSans-79" d="M 2059 -325 
Q 1816 -950 1584 -1140 
Q 1353 -1331 966 -1331 
L 506 -1331 
L 506 -850 
L 844 -850 
Q 1081 -850 1212 -737 
Q 1344 -625 1503 -206 
L 1606 56 
L 191 3500 
L 800 3500 
L 1894 763 
L 2988 3500 
L 3597 3500 
L 2059 -325 
z
" transform="scale(0.015625)"/>
      </defs>
      <use xlink:href="#DejaVuSans-50"/>
      <use xlink:href="#DejaVuSans-61" transform="translate(55.802734 0)"/>
      <use xlink:href="#DejaVuSans-74" transform="translate(117.082031 0)"/>
      <use xlink:href="#DejaVuSans-68" transform="translate(156.291016 0)"/>
      <use xlink:href="#DejaVuSans-20" transform="translate(219.669922 0)"/>
      <use xlink:href="#DejaVuSans-44" transform="translate(251.457031 0)"/>
      <use xlink:href="#DejaVuSans-69" transform="translate(328.458984 0)"/>
      <use xlink:href="#DejaVuSans-73" transform="translate(356.242188 0)"/>
      <use xlink:href="#DejaVuSans-74" transform="translate(408.341797 0)"/>
      <use xlink:href="#DejaVuSans-61" transform="translate(447.550781 0)"/>
      <use xlink:href="#DejaVuSans-6e" transform="translate(508.830078 0)"/>
      <use xlink:href="#DejaVuSans-63" transform="translate(572.208984 0)"/>
      <use xlink:href="#DejaVuSans-65" transform="translate(627.189453 0)"/>
      <use xlink:href="#DejaVuSans-20" transform="translate(688.712891 0)"/>
      <use xlink:href="#DejaVuSans-2e" transform="translate(720.5 0)"/>
      <use xlink:href="#DejaVuSans-70" transform="translate(752.287109 0)"/>
      <use xlink:href="#DejaVuSans-79" transform="translate(815.763672 0)"/>
      <use xlink:href="#DejaVuSans-20" transform="translate(874.943359 0)"/>
      <use xlink:href="#DejaVuSans-70" transform="translate(906.730469 0)"/>
      <use xlink:href="#DejaVuSans-72" transform="translate(970.207031 0)"/>
      <use xlink:href="#DejaVuSans-65" transform="translate(1009.070312 0)"/>
      <use xlink:href="#DejaVuSans-74" transform="translate(1070.59375 0)"/>
      <use xlink:href="#DejaVuSans-72" transform="translate(1109.802734 0)"/>
      <use xlink:href="#DejaVuSans-2e" transform="translate(1141.791016 0)"/>
     </g>
    </g>
    <g id="patch_40">
     <path d="M 324.624961 26.349047 
L 345.624961 26.349047 
L 345.624961 18.999047 
L 324.624961 18.999047 
z
" style="fill: url(#haf0c3493ad); stroke: #ffffff; stroke-linejoin: miter"/>
    </g>
    <g id="text_39">
     <!-- OpenCoder 1.5B -->
     <g style="fill: #262626" transform="translate(354.024961 19.378359) scale(0.105 -0.105)">
      <use xlink:href="#DejaVuSans-4f"/>
      <use xlink:href="#DejaVuSans-70" transform="translate(78.710938 0)"/>
      <use xlink:href="#DejaVuSans-65" transform="translate(142.1875 0)"/>
      <use xlink:href="#DejaVuSans-6e" transform="translate(203.710938 0)"/>
      <use xlink:href="#DejaVuSans-43" transform="translate(267.089844 0)"/>
      <use xlink:href="#DejaVuSans-6f" transform="translate(336.914062 0)"/>
      <use xlink:href="#DejaVuSans-64" transform="translate(398.095703 0)"/>
      <use xlink:href="#DejaVuSans-65" transform="translate(461.572266 0)"/>
      <use xlink:href="#DejaVuSans-72" transform="translate(523.095703 0)"/>
      <use xlink:href="#DejaVuSans-20" transform="translate(564.208984 0)"/>
      <use xlink:href="#DejaVuSans-31" transform="translate(595.996094 0)"/>
      <use xlink:href="#DejaVuSans-2e" transform="translate(659.619141 0)"/>
      <use xlink:href="#DejaVuSans-35" transform="translate(691.40625 0)"/>
      <use xlink:href="#DejaVuSans-42" transform="translate(755.029297 0)"/>
     </g>
     <!-- File-level pretr. -->
     <g style="fill: #262626" transform="translate(354.024961 31.136062) scale(0.105 -0.105)">
      <defs>
       <path id="DejaVuSans-6c" d="M 603 4863 
L 1178 4863 
L 1178 0 
L 603 0 
L 603 4863 
z
" transform="scale(0.015625)"/>
       <path id="DejaVuSans-76" d="M 191 3500 
L 800 3500 
L 1894 563 
L 2988 3500 
L 3597 3500 
L 2284 0 
L 1503 0 
L 191 3500 
z
" transform="scale(0.015625)"/>
      </defs>
      <use xlink:href="#DejaVuSans-46"/>
      <use xlink:href="#DejaVuSans-69" transform="translate(50.269531 0)"/>
      <use xlink:href="#DejaVuSans-6c" transform="translate(78.052734 0)"/>
      <use xlink:href="#DejaVuSans-65" transform="translate(105.835938 0)"/>
      <use xlink:href="#DejaVuSans-2d" transform="translate(167.359375 0)"/>
      <use xlink:href="#DejaVuSans-6c" transform="translate(203.443359 0)"/>
      <use xlink:href="#DejaVuSans-65" transform="translate(231.226562 0)"/>
      <use xlink:href="#DejaVuSans-76" transform="translate(292.75 0)"/>
      <use xlink:href="#DejaVuSans-65" transform="translate(351.929688 0)"/>
      <use xlink:href="#DejaVuSans-6c" transform="translate(413.453125 0)"/>
      <use xlink:href="#DejaVuSans-20" transform="translate(441.236328 0)"/>
      <use xlink:href="#DejaVuSans-70" transform="translate(473.023438 0)"/>
      <use xlink:href="#DejaVuSans-72" transform="translate(536.5 0)"/>
      <use xlink:href="#DejaVuSans-65" transform="translate(575.363281 0)"/>
      <use xlink:href="#DejaVuSans-74" transform="translate(636.886719 0)"/>
      <use xlink:href="#DejaVuSans-72" transform="translate(676.095703 0)"/>
      <use xlink:href="#DejaVuSans-2e" transform="translate(708.083984 0)"/>
     </g>
    </g>
    <g id="patch_41">
     <path d="M 461.510508 26.349047 
L 482.510508 26.349047 
L 482.510508 18.999047 
L 461.510508 18.999047 
z
" style="fill: #b1dd9f; stroke: #ffffff; stroke-linejoin: miter"/>
    </g>
    <g id="text_40">
     <!-- DeepSeek Coder 1.3B -->
     <g style="fill: #262626" transform="translate(490.910508 26.349047) scale(0.105 -0.105)">
      <defs>
       <path id="DejaVuSans-53" d="M 3425 4513 
L 3425 3897 
Q 3066 4069 2747 4153 
Q 2428 4238 2131 4238 
Q 1616 4238 1336 4038 
Q 1056 3838 1056 3469 
Q 1056 3159 1242 3001 
Q 1428 2844 1947 2747 
L 2328 2669 
Q 3034 2534 3370 2195 
Q 3706 1856 3706 1288 
Q 3706 609 3251 259 
Q 2797 -91 1919 -91 
Q 1588 -91 1214 -16 
Q 841 59 441 206 
L 441 856 
Q 825 641 1194 531 
Q 1563 422 1919 422 
Q 2459 422 2753 634 
Q 3047 847 3047 1241 
Q 3047 1584 2836 1778 
Q 2625 1972 2144 2069 
L 1759 2144 
Q 1053 2284 737 2584 
Q 422 2884 422 3419 
Q 422 4038 858 4394 
Q 1294 4750 2059 4750 
Q 2388 4750 2728 4690 
Q 3069 4631 3425 4513 
z
" transform="scale(0.015625)"/>
       <path id="DejaVuSans-6b" d="M 581 4863 
L 1159 4863 
L 1159 1991 
L 2875 3500 
L 3609 3500 
L 1753 1863 
L 3688 0 
L 2938 0 
L 1159 1709 
L 1159 0 
L 581 0 
L 581 4863 
z
" transform="scale(0.015625)"/>
      </defs>
      <use xlink:href="#DejaVuSans-44"/>
      <use xlink:href="#DejaVuSans-65" transform="translate(77.001953 0)"/>
      <use xlink:href="#DejaVuSans-65" transform="translate(138.525391 0)"/>
      <use xlink:href="#DejaVuSans-70" transform="translate(200.048828 0)"/>
      <use xlink:href="#DejaVuSans-53" transform="translate(263.525391 0)"/>
      <use xlink:href="#DejaVuSans-65" transform="translate(327.001953 0)"/>
      <use xlink:href="#DejaVuSans-65" transform="translate(388.525391 0)"/>
      <use xlink:href="#DejaVuSans-6b" transform="translate(450.048828 0)"/>
      <use xlink:href="#DejaVuSans-20" transform="translate(507.958984 0)"/>
      <use xlink:href="#DejaVuSans-43" transform="translate(539.746094 0)"/>
      <use xlink:href="#DejaVuSans-6f" transform="translate(609.570312 0)"/>
      <use xlink:href="#DejaVuSans-64" transform="translate(670.751953 0)"/>
      <use xlink:href="#DejaVuSans-65" transform="translate(734.228516 0)"/>
      <use xlink:href="#DejaVuSans-72" transform="translate(795.751953 0)"/>
      <use xlink:href="#DejaVuSans-20" transform="translate(836.865234 0)"/>
      <use xlink:href="#DejaVuSans-31" transform="translate(868.652344 0)"/>
      <use xlink:href="#DejaVuSans-2e" transform="translate(932.275391 0)"/>
      <use xlink:href="#DejaVuSans-33" transform="translate(964.0625 0)"/>
      <use xlink:href="#DejaVuSans-42" transform="translate(1027.685547 0)"/>
     </g>
    </g>
    <g id="patch_42">
     <path d="M 627.026602 26.349047 
L 648.026602 26.349047 
L 648.026602 18.999047 
L 627.026602 18.999047 
z
" style="fill: #fccc9c; stroke: #ffffff; stroke-linejoin: miter"/>
    </g>
    <g id="text_41">
     <!-- Qwen2.5-Coder 1.5B -->
     <g style="fill: #262626" transform="translate(656.426602 26.349047) scale(0.105 -0.105)">
      <defs>
       <path id="DejaVuSans-51" d="M 2522 4238 
Q 1834 4238 1429 3725 
Q 1025 3213 1025 2328 
Q 1025 1447 1429 934 
Q 1834 422 2522 422 
Q 3209 422 3611 934 
Q 4013 1447 4013 2328 
Q 4013 3213 3611 3725 
Q 3209 4238 2522 4238 
z
M 3406 84 
L 4238 -825 
L 3475 -825 
L 2784 -78 
Q 2681 -84 2626 -87 
Q 2572 -91 2522 -91 
Q 1538 -91 948 567 
Q 359 1225 359 2328 
Q 359 3434 948 4092 
Q 1538 4750 2522 4750 
Q 3503 4750 4090 4092 
Q 4678 3434 4678 2328 
Q 4678 1516 4351 937 
Q 4025 359 3406 84 
z
" transform="scale(0.015625)"/>
       <path id="DejaVuSans-77" d="M 269 3500 
L 844 3500 
L 1563 769 
L 2278 3500 
L 2956 3500 
L 3675 769 
L 4391 3500 
L 4966 3500 
L 4050 0 
L 3372 0 
L 2619 2869 
L 1863 0 
L 1184 0 
L 269 3500 
z
" transform="scale(0.015625)"/>
      </defs>
      <use xlink:href="#DejaVuSans-51"/>
      <use xlink:href="#DejaVuSans-77" transform="translate(78.710938 0)"/>
      <use xlink:href="#DejaVuSans-65" transform="translate(160.498047 0)"/>
      <use xlink:href="#DejaVuSans-6e" transform="translate(222.021484 0)"/>
      <use xlink:href="#DejaVuSans-32" transform="translate(285.400391 0)"/>
      <use xlink:href="#DejaVuSans-2e" transform="translate(349.023438 0)"/>
      <use xlink:href="#DejaVuSans-35" transform="translate(380.810547 0)"/>
      <use xlink:href="#DejaVuSans-2d" transform="translate(444.433594 0)"/>
      <use xlink:href="#DejaVuSans-43" transform="translate(480.517578 0)"/>
      <use xlink:href="#DejaVuSans-6f" transform="translate(550.341797 0)"/>
      <use xlink:href="#DejaVuSans-64" transform="translate(611.523438 0)"/>
      <use xlink:href="#DejaVuSans-65" transform="translate(675 0)"/>
      <use xlink:href="#DejaVuSans-72" transform="translate(736.523438 0)"/>
      <use xlink:href="#DejaVuSans-20" transform="translate(777.636719 0)"/>
      <use xlink:href="#DejaVuSans-31" transform="translate(809.423828 0)"/>
      <use xlink:href="#DejaVuSans-2e" transform="translate(873.046875 0)"/>
      <use xlink:href="#DejaVuSans-35" transform="translate(904.833984 0)"/>
      <use xlink:href="#DejaVuSans-42" transform="translate(968.457031 0)"/>
     </g>
    </g>
    <g id="patch_43">
     <path d="M 786.319805 26.349047 
L 807.319805 26.349047 
L 807.319805 18.999047 
L 786.319805 18.999047 
z
" style="fill: url(#h5b9aebaaa4); stroke: #ffffff; stroke-linejoin: miter"/>
    </g>
    <g id="text_42">
     <!-- Qwen2.5-Coder 0.5B -->
     <g style="fill: #262626" transform="translate(815.719805 26.349047) scale(0.105 -0.105)">
      <use xlink:href="#DejaVuSans-51"/>
      <use xlink:href="#DejaVuSans-77" transform="translate(78.710938 0)"/>
      <use xlink:href="#DejaVuSans-65" transform="translate(160.498047 0)"/>
      <use xlink:href="#DejaVuSans-6e" transform="translate(222.021484 0)"/>
      <use xlink:href="#DejaVuSans-32" transform="translate(285.400391 0)"/>
      <use xlink:href="#DejaVuSans-2e" transform="translate(349.023438 0)"/>
      <use xlink:href="#DejaVuSans-35" transform="translate(380.810547 0)"/>
      <use xlink:href="#DejaVuSans-2d" transform="translate(444.433594 0)"/>
      <use xlink:href="#DejaVuSans-43" transform="translate(480.517578 0)"/>
      <use xlink:href="#DejaVuSans-6f" transform="translate(550.341797 0)"/>
      <use xlink:href="#DejaVuSans-64" transform="translate(611.523438 0)"/>
      <use xlink:href="#DejaVuSans-65" transform="translate(675 0)"/>
      <use xlink:href="#DejaVuSans-72" transform="translate(736.523438 0)"/>
      <use xlink:href="#DejaVuSans-20" transform="translate(777.636719 0)"/>
      <use xlink:href="#DejaVuSans-30" transform="translate(809.423828 0)"/>
      <use xlink:href="#DejaVuSans-2e" transform="translate(873.046875 0)"/>
      <use xlink:href="#DejaVuSans-35" transform="translate(904.833984 0)"/>
      <use xlink:href="#DejaVuSans-42" transform="translate(968.457031 0)"/>
     </g>
    </g>
   </g>
  </g>
 </g>
 <defs>
  <clipPath id="p1736711c42">
   <rect x="46.41" y="46.8074" width="845.91" height="448.574"/>
  </clipPath>
 </defs>
 <defs>
  <pattern id="h5eccc6b5f8" patternUnits="userSpaceOnUse" x="0" y="0" width="72" height="72">
   <rect x="0" y="0" width="73" height="73" fill="#c4dcf4"/>
   <path d="M -36 36 
L 36 -36 
M -32 40 
L 40 -32 
M -28 44 
L 44 -28 
M -24 48 
L 48 -24 
M -20 52 
L 52 -20 
M -16 56 
L 56 -16 
M -12 60 
L 60 -12 
M -8 64 
L 64 -8 
M -4 68 
L 68 -4 
M 0 72 
L 72 0 
M 4 76 
L 76 4 
M 8 80 
L 80 8 
M 12 84 
L 84 12 
M 16 88 
L 88 16 
M 20 92 
L 92 20 
M 24 96 
L 96 24 
M 28 100 
L 100 28 
M 32 104 
L 104 32 
M 36 108 
L 108 36 
" style="fill: #ffffff; stroke: #ffffff; stroke-width: 1.0; stroke-linecap: butt; stroke-linejoin: miter"/>
  </pattern>
  <pattern id="h3f4bf949a0" patternUnits="userSpaceOnUse" x="0" y="0" width="72" height="72">
   <rect x="0" y="0" width="73" height="73" fill="#f0cca8"/>
   <path d="M -36 36 
L 36 -36 
M -32 40 
L 40 -32 
M -28 44 
L 44 -28 
M -24 48 
L 48 -24 
M -20 52 
L 52 -20 
M -16 56 
L 56 -16 
M -12 60 
L 60 -12 
M -8 64 
L 64 -8 
M -4 68 
L 68 -4 
M 0 72 
L 72 0 
M 4 76 
L 76 4 
M 8 80 
L 80 8 
M 12 84 
L 84 12 
M 16 88 
L 88 16 
M 20 92 
L 92 20 
M 24 96 
L 96 24 
M 28 100 
L 100 28 
M 32 104 
L 104 32 
M 36 108 
L 108 36 
" style="fill: #ffffff; stroke: #ffffff; stroke-width: 1.0; stroke-linecap: butt; stroke-linejoin: miter"/>
  </pattern>
  <pattern id="h85f0d65d97" patternUnits="userSpaceOnUse" x="0" y="0" width="72" height="72">
   <rect x="0" y="0" width="73" height="73" fill="#c4dcf4"/>
   <path d="M -36 36 
L 36 -36 
M -32 40 
L 40 -32 
M -28 44 
L 44 -28 
M -24 48 
L 48 -24 
M -20 52 
L 52 -20 
M -16 56 
L 56 -16 
M -12 60 
L 60 -12 
M -8 64 
L 64 -8 
M -4 68 
L 68 -4 
M 0 72 
L 72 0 
M 4 76 
L 76 4 
M 8 80 
L 80 8 
M 12 84 
L 84 12 
M 16 88 
L 88 16 
M 20 92 
L 92 20 
M 24 96 
L 96 24 
M 28 100 
L 100 28 
M 32 104 
L 104 32 
M 36 108 
L 108 36 
M -36 36 
L 36 108 
M -32 32 
L 40 104 
M -28 28 
L 44 100 
M -24 24 
L 48 96 
M -20 20 
L 52 92 
M -16 16 
L 56 88 
M -12 12 
L 60 84 
M -8 8 
L 64 80 
M -4 4 
L 68 76 
M 0 0 
L 72 72 
M 4 -4 
L 76 68 
M 8 -8 
L 80 64 
M 12 -12 
L 84 60 
M 16 -16 
L 88 56 
M 20 -20 
L 92 52 
M 24 -24 
L 96 48 
M 28 -28 
L 100 44 
M 32 -32 
L 104 40 
M 36 -36 
L 108 36 
" style="fill: #ffffff; stroke: #ffffff; stroke-width: 1.0; stroke-linecap: butt; stroke-linejoin: miter"/>
  </pattern>
  <pattern id="hbf113dea14" patternUnits="userSpaceOnUse" x="0" y="0" width="72" height="72">
   <rect x="0" y="0" width="73" height="73" fill="#bcdcfc"/>
   <path d="M -36 36 
L 36 -36 
M -32 40 
L 40 -32 
M -28 44 
L 44 -28 
M -24 48 
L 48 -24 
M -20 52 
L 52 -20 
M -16 56 
L 56 -16 
M -12 60 
L 60 -12 
M -8 64 
L 64 -8 
M -4 68 
L 68 -4 
M 0 72 
L 72 0 
M 4 76 
L 76 4 
M 8 80 
L 80 8 
M 12 84 
L 84 12 
M 16 88 
L 88 16 
M 20 92 
L 92 20 
M 24 96 
L 96 24 
M 28 100 
L 100 28 
M 32 104 
L 104 32 
M 36 108 
L 108 36 
M -36 36 
L 36 108 
M -32 32 
L 40 104 
M -28 28 
L 44 100 
M -24 24 
L 48 96 
M -20 20 
L 52 92 
M -16 16 
L 56 88 
M -12 12 
L 60 84 
M -8 8 
L 64 80 
M -4 4 
L 68 76 
M 0 0 
L 72 72 
M 4 -4 
L 76 68 
M 8 -8 
L 80 64 
M 12 -12 
L 84 60 
M 16 -16 
L 88 56 
M 20 -20 
L 92 52 
M 24 -24 
L 96 48 
M 28 -28 
L 100 44 
M 32 -32 
L 104 40 
M 36 -36 
L 108 36 
" style="fill: #ffffff; stroke: #ffffff; stroke-width: 1.0; stroke-linecap: butt; stroke-linejoin: miter"/>
  </pattern>
  <pattern id="haf0c3493ad" patternUnits="userSpaceOnUse" x="0" y="0" width="72" height="72">
   <rect x="0" y="0" width="73" height="73" fill="#bcdcfc"/>
   <path d="M -36 36 
L 36 -36 
M -32 40 
L 40 -32 
M -28 44 
L 44 -28 
M -24 48 
L 48 -24 
M -20 52 
L 52 -20 
M -16 56 
L 56 -16 
M -12 60 
L 60 -12 
M -8 64 
L 64 -8 
M -4 68 
L 68 -4 
M 0 72 
L 72 0 
M 4 76 
L 76 4 
M 8 80 
L 80 8 
M 12 84 
L 84 12 
M 16 88 
L 88 16 
M 20 92 
L 92 20 
M 24 96 
L 96 24 
M 28 100 
L 100 28 
M 32 104 
L 104 32 
M 36 108 
L 108 36 
" style="fill: #ffffff; stroke: #ffffff; stroke-width: 1.0; stroke-linecap: butt; stroke-linejoin: miter"/>
  </pattern>
  <pattern id="h5b9aebaaa4" patternUnits="userSpaceOnUse" x="0" y="0" width="72" height="72">
   <rect x="0" y="0" width="73" height="73" fill="#fccc9c"/>
   <path d="M -36 36 
L 36 -36 
M -32 40 
L 40 -32 
M -28 44 
L 44 -28 
M -24 48 
L 48 -24 
M -20 52 
L 52 -20 
M -16 56 
L 56 -16 
M -12 60 
L 60 -12 
M -8 64 
L 64 -8 
M -4 68 
L 68 -4 
M 0 72 
L 72 0 
M 4 76 
L 76 4 
M 8 80 
L 80 8 
M 12 84 
L 84 12 
M 16 88 
L 88 16 
M 20 92 
L 92 20 
M 24 96 
L 96 24 
M 28 100 
L 100 28 
M 32 104 
L 104 32 
M 36 108 
L 108 36 
" style="fill: #ffffff; stroke: #ffffff; stroke-width: 1.0; stroke-linecap: butt; stroke-linejoin: miter"/>
  </pattern>
 </defs>
</svg>
